# xmcd CD database file
#
# Track frame offsets:
#	150
#	21173
#	44031
#	71930
#	88339
#	117969
#	141115
#	161519
#	187612
#	206599
#	249379
#
# Disc length: 3694 seconds
#
# Revision: 0
# Processed by: cddbd v1.5.1PL0 Copyright (c) Steve Scherf et al.
# Submitted via: CDex 1.51
#
DISCID=9c0e6c0b
DTITLE=Benjamin Koppel - Babop
DYEAR=2004
DGENRE=Jazz
TTITLE0=Soul Bop (Portrait of Mingus)
TTITLE1=Bumble Bebop
TTITLE2=Before the concert
TTITLE3=Baritone Rock
TTITLE4=Stanglakrids (the spy who)
TTITLE5=Babop
TTITLE6=Blaesevejr (the sun has got its hat on)
TTITLE7=Vals (two large animals)
TTITLE8=H_T_E_S_T_A_C (how to explain socialism to a cat)
TTITLE9=Tones 2 Barry
TTITLE10=GO!
EXTD=YEAR: 2004
EXTT0=
EXTT1=
EXTT2=
EXTT3=
EXTT4=
EXTT5=
EXTT6=
EXTT7=
EXTT8=
EXTT9=
EXTT10=
PLAYORDER=
